<mxfile host="65bd71144e">
    <diagram id="GRKrvU_dlWNkBe0fu43n" name="Страница 1">
        <mxGraphModel dx="426" dy="306" grid="1" gridSize="10" guides="1" tooltips="1" connect="1" arrows="1" fold="1" page="1" pageScale="1" pageWidth="827" pageHeight="1169" math="0" shadow="0">
            <root>
                <mxCell id="0"/>
                <mxCell id="1" parent="0"/>
                <mxCell id="gCXausYLIqrDoqg1olJX-1" value="" style="verticalLabelPosition=bottom;verticalAlign=top;html=1;shadow=0;dashed=0;strokeWidth=1;shape=mxgraph.android.phone2;strokeColor=#c0c0c0;" parent="1" vertex="1">
                    <mxGeometry x="310" y="170" width="200" height="390" as="geometry"/>
                </mxCell>
                <mxCell id="gCXausYLIqrDoqg1olJX-2" value="Navbar" style="rounded=0;whiteSpace=wrap;html=1;" parent="1" vertex="1">
                    <mxGeometry x="320" y="210" width="180" height="40" as="geometry"/>
                </mxCell>
                <mxCell id="gCXausYLIqrDoqg1olJX-3" value="Input" style="rounded=0;whiteSpace=wrap;html=1;" parent="1" vertex="1">
                    <mxGeometry x="320" y="260" width="110" height="20" as="geometry"/>
                </mxCell>
                <mxCell id="gCXausYLIqrDoqg1olJX-4" value="Input" style="rounded=0;whiteSpace=wrap;html=1;" parent="1" vertex="1">
                    <mxGeometry x="440" y="260" width="60" height="20" as="geometry"/>
                </mxCell>
                <mxCell id="gCXausYLIqrDoqg1olJX-5" value="TODO 1" style="rounded=0;whiteSpace=wrap;html=1;" parent="1" vertex="1">
                    <mxGeometry x="320" y="300" width="180" height="30" as="geometry"/>
                </mxCell>
                <mxCell id="gCXausYLIqrDoqg1olJX-6" value="TODO 2" style="rounded=0;whiteSpace=wrap;html=1;" parent="1" vertex="1">
                    <mxGeometry x="320" y="340" width="180" height="30" as="geometry"/>
                </mxCell>
                <mxCell id="gCXausYLIqrDoqg1olJX-7" value="TODO 3" style="rounded=0;whiteSpace=wrap;html=1;" parent="1" vertex="1">
                    <mxGeometry x="320" y="380" width="180" height="30" as="geometry"/>
                </mxCell>
            </root>
        </mxGraphModel>
    </diagram>
</mxfile>